<svg viewBox="0 0 88 88" fill="none" xmlns="http://www.w3.org/2000/svg">
  <circle cx="44" cy="44" r="40" stroke="#8b5cf6" stroke-width="1.2" opacity="0.25"/>
  <circle cx="44" cy="44" r="36" stroke="#8b5cf6" stroke-width="0.7" opacity="0.12" stroke-dasharray="3 5"/>
  <polygon points="44,12 72,28 72,60 44,76 16,60 16,28" stroke="#8b5cf6" stroke-width="1.4" stroke-linejoin="round" opacity="0.45"/>
  <path d="M22,36 Q22,18 44,18 Q66,18 66,36" stroke="#8b5cf6" stroke-width="2.6" stroke-linecap="round"/>
  <path d="M22,36 L22,50 Q22,56 28,56 L35,56 L35,48 L28,48 L28,36" stroke="#8b5cf6" stroke-width="2.2" stroke-linejoin="round"/>
  <path d="M66,36 L66,50 Q66,56 60,56 L53,56 L53,48 L60,48 L60,36" stroke="#8b5cf6" stroke-width="2.2" stroke-linejoin="round"/>
  <path d="M28,42 L22,56 L26,56" stroke="#8b5cf6" stroke-width="1.8" stroke-linecap="round" stroke-linejoin="round"/>
  <circle cx="26" cy="56" r="2" fill="#8b5cf6" opacity="0.9"/>
  <polygon points="42,24 40,16 45,16 39,10 43,14 38,14" fill="#8b5cf6" opacity="0.85"/>
  <rect x="26" y="60" width="7" height="5" rx="1.2" stroke="#8b5cf6" stroke-width="1.3" opacity="0.5"/>
  <rect x="35" y="60" width="7" height="5" rx="1.2" stroke="#8b5cf6" stroke-width="1.3" opacity="0.5"/>
  <rect x="44" y="60" width="7" height="5" rx="1.2" stroke="#8b5cf6" stroke-width="1.3" opacity="0.5"/>
  <rect x="53" y="60" width="7" height="5" rx="1.2" stroke="#8b5cf6" stroke-width="1.3" opacity="0.5"/>
  <line x1="32" y1="56" x2="28" y2="66" stroke="#8b5cf6" stroke-width="0.8" opacity="0.3" stroke-linecap="round"/>
  <line x1="44" y1="56" x2="44" y2="68" stroke="#8b5cf6" stroke-width="0.8" opacity="0.3" stroke-linecap="round"/>
  <line x1="56" y1="56" x2="60" y2="66" stroke="#8b5cf6" stroke-width="0.8" opacity="0.3" stroke-linecap="round"/>
</svg>
