<svg viewBox="0 0 88 88" xmlns="http://www.w3.org/2000/svg">
  <rect width="88" height="88" rx="18" fill="white"/>
  <polygon points="44,14 70,29 70,59 44,74 18,59 18,29" fill="#ede9fe" stroke="#7c3aed" stroke-width="2.8" stroke-linejoin="round"/>
  <path d="M24,38 Q24,20 44,20 Q64,20 64,38" stroke="#7c3aed" stroke-width="3.2" stroke-linecap="round" fill="none"/>
  <path d="M24,38 L24,52 Q24,60 32,60 L40,60 L40,50 L32,50 L32,38" stroke="#7c3aed" stroke-width="2.8" stroke-linejoin="round" fill="none"/>
  <path d="M64,38 L64,52 Q64,60 56,60 L48,60 L48,50 L56,50 L56,38" stroke="#7c3aed" stroke-width="2.8" stroke-linejoin="round" fill="none"/>
  <path d="M32,44 L24,60 L29,60" stroke="#7c3aed" stroke-width="2.4" stroke-linecap="round" stroke-linejoin="round"/>
  <circle cx="29" cy="60" r="2.5" fill="#7c3aed"/>
  <polygon points="44,28 42,18 48,18 40,10 46,16 38,16" fill="#f59e0b" opacity="0.9"/>
  <rect x="28" y="65" width="8" height="6" rx="1.5" fill="none" stroke="#7c3aed" stroke-width="1.6" opacity="0.5"/>
  <rect x="38" y="65" width="8" height="6" rx="1.5" fill="none" stroke="#7c3aed" stroke-width="1.6" opacity="0.5"/>
  <rect x="48" y="65" width="8" height="6" rx="1.5" fill="none" stroke="#7c3aed" stroke-width="1.6" opacity="0.5"/>
</svg>
