<svg viewBox="0 0 512 512" xmlns="http://www.w3.org/2000/svg">
  <defs>
    <linearGradient id="bg" x1="0" y1="0" x2="1" y2="1">
      <stop offset="0%" stop-color="#0f172a"/>
      <stop offset="100%" stop-color="#020617"/>
    </linearGradient>
  </defs>
  <rect width="512" height="512" rx="96" fill="url(#bg)"/>
  <polygon points="256,100 376,176 376,316 256,392 136,316 136,176" fill="#1e293b" stroke="#f97316" stroke-width="5" stroke-linejoin="round"/>
  <path d="M186,224 Q186,166 256,166 Q326,166 326,224" stroke="#f97316" stroke-width="22" stroke-linecap="round" fill="none"/>
  <path d="M174,244 L174,308 Q174,344 214,344 L236,344 L236,300 L210,300 L210,244" stroke="#f97316" stroke-width="20" stroke-linejoin="round" fill="none"/>
  <path d="M338,244 L338,308 Q338,344 298,344 L276,344 L276,300 L302,300 L302,244" stroke="#f97316" stroke-width="20" stroke-linejoin="round" fill="none"/>
  <circle cx="256" cy="200" r="12" fill="#f97316"/>
  <text x="256" y="450" font-family="Arial,Helvetica,sans-serif" font-size="56" font-weight="900" fill="#f97316" text-anchor="middle" letter-spacing="8">CXY</text>
</svg>
