<svg viewBox="0 0 512 512" xmlns="http://www.w3.org/2000/svg">
  <defs>
    <linearGradient id="bg" x1="0" y1="0" x2="1" y2="1">
      <stop offset="0%" stop-color="#0f172a"/>
      <stop offset="100%" stop-color="#020617"/>
    </linearGradient>
  </defs>
  <rect width="512" height="512" rx="96" fill="url(#bg)"/>
  <polygon points="256,120 368,192 368,320 256,392 144,320 144,192" fill="#1e293b" stroke="#f97316" stroke-width="5" stroke-linejoin="round"/>
  <path d="M192,224 Q192,176 256,176 Q320,176 320,224" stroke="#f97316" stroke-width="22" stroke-linecap="round" fill="none"/>
  <path d="M180,244 L180,300 Q180,336 216,336 L236,336 L236,296 L212,296 L212,244" stroke="#f97316" stroke-width="20" stroke-linejoin="round" fill="none"/>
  <path d="M332,244 L332,300 Q332,336 296,336 L276,336 L276,296 L300,296 L300,244" stroke="#f97316" stroke-width="20" stroke-linejoin="round" fill="none"/>
  <circle cx="256" cy="205" r="12" fill="#f97316"/>
  <path d="M256,60 L256,110" stroke="#f97316" stroke-width="8" stroke-linecap="round" opacity="0.5"/>
  <path d="M340,146 L256,195" stroke="#f97316" stroke-width="6" stroke-linecap="round" opacity="0.25"/>
  <path d="M172,146 L256,195" stroke="#f97316" stroke-width="6" stroke-linecap="round" opacity="0.25"/>
</svg>
