<svg viewBox="0 0 512 512" xmlns="http://www.w3.org/2000/svg">
  <defs>
    <linearGradient id="bg" x1="0" y1="0" x2="1" y2="1">
      <stop offset="0%" stop-color="#0f172a"/>
      <stop offset="100%" stop-color="#020617"/>
    </linearGradient>
  </defs>
  <rect width="512" height="512" rx="96" fill="url(#bg)"/>
  <polygon points="256,46 438,151 438,361 256,466 74,361 74,151" fill="#1e293b" stroke="#f97316" stroke-width="10" stroke-linejoin="round"/>
  <path d="M160,228 Q160,140 256,140 Q352,140 352,228" stroke="#f97316" stroke-width="30" stroke-linecap="round" fill="none"/>
  <path d="M140,256 L140,320 Q140,374 195,374 L230,374 L230,308 L190,308 L190,256" stroke="#f97316" stroke-width="28" stroke-linejoin="round" fill="none"/>
  <path d="M372,256 L372,320 Q372,374 317,374 L282,374 L282,308 L322,308 L322,256" stroke="#f97316" stroke-width="28" stroke-linejoin="round" fill="none"/>
  <circle cx="256" cy="205" r="18" fill="#f97316"/>
  <text x="256" y="490" font-family="Arial,Helvetica,sans-serif" font-size="64" font-weight="900" fill="#f97316" text-anchor="middle" letter-spacing="12">CXY</text>
</svg>
